<svg aria-roledescription="er" role="graphics-document document" viewBox="0 0 400.5869140625 752" style="max-width: 400.587px; background-color: white;" xmlns:xlink="http://www.w3.org/1999/xlink" xmlns="http://www.w3.org/2000/svg" width="100%" id="my-svg"><style>#my-svg{font-family:"trebuchet ms",verdana,arial,sans-serif;font-size:16px;fill:#ccc;}#my-svg .error-icon{fill:#a44141;}#my-svg .error-text{fill:#ddd;stroke:#ddd;}#my-svg .edge-thickness-normal{stroke-width:1px;}#my-svg .edge-thickness-thick{stroke-width:3.5px;}#my-svg .edge-pattern-solid{stroke-dasharray:0;}#my-svg .edge-thickness-invisible{stroke-width:0;fill:none;}#my-svg .edge-pattern-dashed{stroke-dasharray:3;}#my-svg .edge-pattern-dotted{stroke-dasharray:2;}#my-svg .marker{fill:lightgrey;stroke:lightgrey;}#my-svg .marker.cross{stroke:lightgrey;}#my-svg svg{font-family:"trebuchet ms",verdana,arial,sans-serif;font-size:16px;}#my-svg p{margin:0;}#my-svg .entityBox{fill:#1f2020;stroke:#ccc;}#my-svg .attributeBoxOdd{fill:hsl(0, 0%, 32%);stroke:#ccc;}#my-svg .attributeBoxEven{fill:hsl(0, 0%, 22%);stroke:#ccc;}#my-svg .relationshipLabelBox{fill:hsl(20, 1.5873015873%, 12.3529411765%);opacity:0.7;background-color:hsl(20, 1.5873015873%, 12.3529411765%);}#my-svg .relationshipLabelBox rect{opacity:0.5;}#my-svg .relationshipLine{stroke:lightgrey;}#my-svg .entityTitleText{text-anchor:middle;font-size:18px;fill:#ccc;}#my-svg #MD_PARENT_START{fill:#f5f5f5!important;stroke:lightgrey!important;stroke-width:1;}#my-svg #MD_PARENT_END{fill:#f5f5f5!important;stroke:lightgrey!important;stroke-width:1;}#my-svg :root{--mermaid-font-family:"trebuchet ms",verdana,arial,sans-serif;}</style><g/><defs><marker orient="auto" markerHeight="240" markerWidth="190" refY="7" refX="0" id="MD_PARENT_START"><path d="M 18,7 L9,13 L1,7 L9,1 Z"/></marker></defs><defs><marker orient="auto" markerHeight="28" markerWidth="20" refY="7" refX="19" id="MD_PARENT_END"><path d="M 18,7 L9,13 L1,7 L9,1 Z"/></marker></defs><defs><marker orient="auto" markerHeight="18" markerWidth="18" refY="9" refX="0" id="ONLY_ONE_START"><path d="M9,0 L9,18 M15,0 L15,18" fill="none" stroke="gray"/></marker></defs><defs><marker orient="auto" markerHeight="18" markerWidth="18" refY="9" refX="18" id="ONLY_ONE_END"><path d="M3,0 L3,18 M9,0 L9,18" fill="none" stroke="gray"/></marker></defs><defs><marker orient="auto" markerHeight="18" markerWidth="30" refY="9" refX="0" id="ZERO_OR_ONE_START"><circle r="6" cy="9" cx="21" fill="white" stroke="gray"/><path d="M9,0 L9,18" fill="none" stroke="gray"/></marker></defs><defs><marker orient="auto" markerHeight="18" markerWidth="30" refY="9" refX="30" id="ZERO_OR_ONE_END"><circle r="6" cy="9" cx="9" fill="white" stroke="gray"/><path d="M21,0 L21,18" fill="none" stroke="gray"/></marker></defs><defs><marker orient="auto" markerHeight="36" markerWidth="45" refY="18" refX="18" id="ONE_OR_MORE_START"><path d="M0,18 Q 18,0 36,18 Q 18,36 0,18 M42,9 L42,27" fill="none" stroke="gray"/></marker></defs><defs><marker orient="auto" markerHeight="36" markerWidth="45" refY="18" refX="27" id="ONE_OR_MORE_END"><path d="M3,9 L3,27 M9,18 Q27,0 45,18 Q27,36 9,18" fill="none" stroke="gray"/></marker></defs><defs><marker orient="auto" markerHeight="36" markerWidth="57" refY="18" refX="18" id="ZERO_OR_MORE_START"><circle r="6" cy="18" cx="48" fill="white" stroke="gray"/><path d="M0,18 Q18,0 36,18 Q18,36 0,18" fill="none" stroke="gray"/></marker></defs><defs><marker orient="auto" markerHeight="36" markerWidth="57" refY="18" refX="39" id="ZERO_OR_MORE_END"><circle r="6" cy="18" cx="9" fill="white" stroke="gray"/><path d="M21,18 Q39,0 57,18 Q39,36 21,18" fill="none" stroke="gray"/></marker></defs><path style="stroke: gray; fill: none;" marker-start="url(#ZERO_OR_MORE_START)" marker-end="url(#ZERO_OR_MORE_END)" d="M202.113,198L196.118,206.333C190.123,214.667,178.133,231.333,179.26,248C180.387,264.667,194.632,281.333,201.755,289.667L208.877,298" class="er relationshipLine"/><path style="stroke: gray; fill: none;" marker-start="url(#ZERO_OR_ONE_START)" marker-end="url(#ONLY_ONE_END)" d="M188.683,417.364L172.748,428.137C156.812,438.91,124.942,460.455,109.006,479.561C93.071,498.667,93.071,515.333,93.071,523.667L93.071,532" class="er relationshipLine"/><path style="stroke: gray; fill: none;" marker-start="url(#ZERO_OR_ONE_START)" marker-end="url(#ONLY_ONE_END)" d="M266.142,298L266.142,289.667C266.142,281.333,266.142,264.667,266.142,248C266.142,231.333,266.142,214.667,266.142,206.333L266.142,198" class="er relationshipLine"/><path style="stroke: gray; fill: none;" marker-start="url(#ZERO_OR_ONE_START)" marker-end="url(#ZERO_OR_ONE_END)" d="M266.142,432L266.142,440.333C266.142,448.667,266.142,465.333,273.198,494.833C280.253,524.333,294.364,566.667,301.42,587.833L308.476,609" class="er relationshipLine"/><path style="stroke: gray; fill: none;" marker-start="url(#ZERO_OR_MORE_START)" marker-end="url(#ZERO_OR_MORE_END)" d="M323.809,609L330.864,587.833C337.92,566.667,352.031,524.333,351.964,494.833C351.897,465.333,337.652,448.667,330.53,440.333L323.407,432" class="er relationshipLine"/><g transform="translate(20,532 )" id="entity-Categories-4066dbfd-a08d-5786-b5c1-a5236eeca05a"><rect height="200" width="146.14224243164062" y="0" x="0" class="er entityBox"/><text style="dominant-baseline: middle; text-anchor: middle; font-size: 12px;" transform="translate(73.07112121582031,12)" y="0" x="0" id="text-entity-Categories-4066dbfd-a08d-5786-b5c1-a5236eeca05a" class="er entityLabel">Categories</text><rect height="22" width="73.07112121582031" y="24" x="0" class="er attributeBoxOdd"/><text style="dominant-baseline: middle; font-size: 10.2px;" transform="translate(5,35)" y="0" x="0" id="text-entity-Categories-4066dbfd-a08d-5786-b5c1-a5236eeca05a-attr-1-type" class="er entityLabel">Food</text><rect height="22" width="73.07112121582031" y="24" x="73.07112121582031" class="er attributeBoxOdd"/><text style="dominant-baseline: middle; font-size: 10.2px;" transform="translate(78.07112121582031,35)" y="0" x="0" id="text-entity-Categories-4066dbfd-a08d-5786-b5c1-a5236eeca05a-attr-1-name" class="er entityLabel">Food</text><rect height="22" width="73.07112121582031" y="46" x="0" class="er attributeBoxEven"/><text style="dominant-baseline: middle; font-size: 10.2px;" transform="translate(5,57)" y="0" x="0" id="text-entity-Categories-4066dbfd-a08d-5786-b5c1-a5236eeca05a-attr-2-type" class="er entityLabel">Fruits</text><rect height="22" width="73.07112121582031" y="46" x="73.07112121582031" class="er attributeBoxEven"/><text style="dominant-baseline: middle; font-size: 10.2px;" transform="translate(78.07112121582031,57)" y="0" x="0" id="text-entity-Categories-4066dbfd-a08d-5786-b5c1-a5236eeca05a-attr-2-name" class="er entityLabel">Fruits</text><rect height="22" width="73.07112121582031" y="68" x="0" class="er attributeBoxOdd"/><text style="dominant-baseline: middle; font-size: 10.2px;" transform="translate(5,79)" y="0" x="0" id="text-entity-Categories-4066dbfd-a08d-5786-b5c1-a5236eeca05a-attr-3-type" class="er entityLabel">Eletronics</text><rect height="22" width="73.07112121582031" y="68" x="73.07112121582031" class="er attributeBoxOdd"/><text style="dominant-baseline: middle; font-size: 10.2px;" transform="translate(78.07112121582031,79)" y="0" x="0" id="text-entity-Categories-4066dbfd-a08d-5786-b5c1-a5236eeca05a-attr-3-name" class="er entityLabel">Eletronics</text><rect height="22" width="73.07112121582031" y="90" x="0" class="er attributeBoxEven"/><text style="dominant-baseline: middle; font-size: 10.2px;" transform="translate(5,101)" y="0" x="0" id="text-entity-Categories-4066dbfd-a08d-5786-b5c1-a5236eeca05a-attr-4-type" class="er entityLabel">Video_Games</text><rect height="22" width="73.07112121582031" y="90" x="73.07112121582031" class="er attributeBoxEven"/><text style="dominant-baseline: middle; font-size: 10.2px;" transform="translate(78.07112121582031,101)" y="0" x="0" id="text-entity-Categories-4066dbfd-a08d-5786-b5c1-a5236eeca05a-attr-4-name" class="er entityLabel">Video_Games</text><rect height="22" width="73.07112121582031" y="112" x="0" class="er attributeBoxOdd"/><text style="dominant-baseline: middle; font-size: 10.2px;" transform="translate(5,123)" y="0" x="0" id="text-entity-Categories-4066dbfd-a08d-5786-b5c1-a5236eeca05a-attr-5-type" class="er entityLabel">Clothes</text><rect height="22" width="73.07112121582031" y="112" x="73.07112121582031" class="er attributeBoxOdd"/><text style="dominant-baseline: middle; font-size: 10.2px;" transform="translate(78.07112121582031,123)" y="0" x="0" id="text-entity-Categories-4066dbfd-a08d-5786-b5c1-a5236eeca05a-attr-5-name" class="er entityLabel">Clothes</text><rect height="22" width="73.07112121582031" y="134" x="0" class="er attributeBoxEven"/><text style="dominant-baseline: middle; font-size: 10.2px;" transform="translate(5,145)" y="0" x="0" id="text-entity-Categories-4066dbfd-a08d-5786-b5c1-a5236eeca05a-attr-6-type" class="er entityLabel">Sports</text><rect height="22" width="73.07112121582031" y="134" x="73.07112121582031" class="er attributeBoxEven"/><text style="dominant-baseline: middle; font-size: 10.2px;" transform="translate(78.07112121582031,145)" y="0" x="0" id="text-entity-Categories-4066dbfd-a08d-5786-b5c1-a5236eeca05a-attr-6-name" class="er entityLabel">Sports</text><rect height="22" width="73.07112121582031" y="156" x="0" class="er attributeBoxOdd"/><text style="dominant-baseline: middle; font-size: 10.2px;" transform="translate(5,167)" y="0" x="0" id="text-entity-Categories-4066dbfd-a08d-5786-b5c1-a5236eeca05a-attr-7-type" class="er entityLabel">House</text><rect height="22" width="73.07112121582031" y="156" x="73.07112121582031" class="er attributeBoxOdd"/><text style="dominant-baseline: middle; font-size: 10.2px;" transform="translate(78.07112121582031,167)" y="0" x="0" id="text-entity-Categories-4066dbfd-a08d-5786-b5c1-a5236eeca05a-attr-7-name" class="er entityLabel">House</text><rect height="22" width="73.07112121582031" y="178" x="0" class="er attributeBoxEven"/><text style="dominant-baseline: middle; font-size: 10.2px;" transform="translate(5,189)" y="0" x="0" id="text-entity-Categories-4066dbfd-a08d-5786-b5c1-a5236eeca05a-attr-8-type" class="er entityLabel">Others</text><rect height="22" width="73.07112121582031" y="178" x="73.07112121582031" class="er attributeBoxEven"/><text style="dominant-baseline: middle; font-size: 10.2px;" transform="translate(78.07112121582031,189)" y="0" x="0" id="text-entity-Categories-4066dbfd-a08d-5786-b5c1-a5236eeca05a-attr-8-name" class="er entityLabel">Others</text></g><g transform="translate(198.96505737304688,20 )" id="entity-User-818c511a-4a32-5484-ba70-875d765a9175"><rect height="178" width="134.3543701171875" y="0" x="0" class="er entityBox"/><text style="dominant-baseline: middle; text-anchor: middle; font-size: 12px;" transform="translate(67.17718505859375,12)" y="0" x="0" id="text-entity-User-818c511a-4a32-5484-ba70-875d765a9175" class="er entityLabel">User</text><rect height="22" width="54.095550537109375" y="24" x="0" class="er attributeBoxOdd"/><text style="dominant-baseline: middle; font-size: 10.2px;" transform="translate(5,35)" y="0" x="0" id="text-entity-User-818c511a-4a32-5484-ba70-875d765a9175-attr-1-type" class="er entityLabel">String</text><rect height="22" width="56.243194580078125" y="24" x="54.095550537109375" class="er attributeBoxOdd"/><text style="dominant-baseline: middle; font-size: 10.2px;" transform="translate(59.095550537109375,35)" y="0" x="0" id="text-entity-User-818c511a-4a32-5484-ba70-875d765a9175-attr-1-name" class="er entityLabel">id</text><rect height="22" width="24.015625" y="24" x="110.3387451171875" class="er attributeBoxOdd"/><text style="dominant-baseline: middle; font-size: 10.2px;" transform="translate(115.3387451171875,35)" y="0" x="0" id="text-entity-User-818c511a-4a32-5484-ba70-875d765a9175-attr-1-comment" class="er entityLabel">🗝️</text><rect height="22" width="54.095550537109375" y="46" x="0" class="er attributeBoxEven"/><text style="dominant-baseline: middle; font-size: 10.2px;" transform="translate(5,57)" y="0" x="0" id="text-entity-User-818c511a-4a32-5484-ba70-875d765a9175-attr-2-type" class="er entityLabel">String</text><rect height="22" width="56.243194580078125" y="46" x="54.095550537109375" class="er attributeBoxEven"/><text style="dominant-baseline: middle; font-size: 10.2px;" transform="translate(59.095550537109375,57)" y="0" x="0" id="text-entity-User-818c511a-4a32-5484-ba70-875d765a9175-attr-2-name" class="er entityLabel">name</text><rect height="22" width="24.015625" y="46" x="110.3387451171875" class="er attributeBoxEven"/><text style="dominant-baseline: middle; font-size: 10.2px;" transform="translate(115.3387451171875,57)" y="0" x="0" id="text-entity-User-818c511a-4a32-5484-ba70-875d765a9175-attr-2-comment" class="er entityLabel">❓</text><rect height="22" width="54.095550537109375" y="68" x="0" class="er attributeBoxOdd"/><text style="dominant-baseline: middle; font-size: 10.2px;" transform="translate(5,79)" y="0" x="0" id="text-entity-User-818c511a-4a32-5484-ba70-875d765a9175-attr-3-type" class="er entityLabel">String</text><rect height="22" width="56.243194580078125" y="68" x="54.095550537109375" class="er attributeBoxOdd"/><text style="dominant-baseline: middle; font-size: 10.2px;" transform="translate(59.095550537109375,79)" y="0" x="0" id="text-entity-User-818c511a-4a32-5484-ba70-875d765a9175-attr-3-name" class="er entityLabel">avatarUrl</text><rect height="22" width="24.015625" y="68" x="110.3387451171875" class="er attributeBoxOdd"/><text style="dominant-baseline: middle; font-size: 10.2px;" transform="translate(115.3387451171875,79)" y="0" x="0" id="text-entity-User-818c511a-4a32-5484-ba70-875d765a9175-attr-3-comment" class="er entityLabel">❓</text><rect height="22" width="54.095550537109375" y="90" x="0" class="er attributeBoxEven"/><text style="dominant-baseline: middle; font-size: 10.2px;" transform="translate(5,101)" y="0" x="0" id="text-entity-User-818c511a-4a32-5484-ba70-875d765a9175-attr-4-type" class="er entityLabel">String</text><rect height="22" width="56.243194580078125" y="90" x="54.095550537109375" class="er attributeBoxEven"/><text style="dominant-baseline: middle; font-size: 10.2px;" transform="translate(59.095550537109375,101)" y="0" x="0" id="text-entity-User-818c511a-4a32-5484-ba70-875d765a9175-attr-4-name" class="er entityLabel">email</text><rect height="22" width="24.015625" y="90" x="110.3387451171875" class="er attributeBoxEven"/><text style="dominant-baseline: middle; font-size: 10.2px;" transform="translate(115.3387451171875,101)" y="0" x="0" id="text-entity-User-818c511a-4a32-5484-ba70-875d765a9175-attr-4-comment" class="er entityLabel"/><rect height="22" width="54.095550537109375" y="112" x="0" class="er attributeBoxOdd"/><text style="dominant-baseline: middle; font-size: 10.2px;" transform="translate(5,123)" y="0" x="0" id="text-entity-User-818c511a-4a32-5484-ba70-875d765a9175-attr-5-type" class="er entityLabel">String</text><rect height="22" width="56.243194580078125" y="112" x="54.095550537109375" class="er attributeBoxOdd"/><text style="dominant-baseline: middle; font-size: 10.2px;" transform="translate(59.095550537109375,123)" y="0" x="0" id="text-entity-User-818c511a-4a32-5484-ba70-875d765a9175-attr-5-name" class="er entityLabel">password</text><rect height="22" width="24.015625" y="112" x="110.3387451171875" class="er attributeBoxOdd"/><text style="dominant-baseline: middle; font-size: 10.2px;" transform="translate(115.3387451171875,123)" y="0" x="0" id="text-entity-User-818c511a-4a32-5484-ba70-875d765a9175-attr-5-comment" class="er entityLabel"/><rect height="22" width="54.095550537109375" y="134" x="0" class="er attributeBoxEven"/><text style="dominant-baseline: middle; font-size: 10.2px;" transform="translate(5,145)" y="0" x="0" id="text-entity-User-818c511a-4a32-5484-ba70-875d765a9175-attr-6-type" class="er entityLabel">Float</text><rect height="22" width="56.243194580078125" y="134" x="54.095550537109375" class="er attributeBoxEven"/><text style="dominant-baseline: middle; font-size: 10.2px;" transform="translate(59.095550537109375,145)" y="0" x="0" id="text-entity-User-818c511a-4a32-5484-ba70-875d765a9175-attr-6-name" class="er entityLabel">cash</text><rect height="22" width="24.015625" y="134" x="110.3387451171875" class="er attributeBoxEven"/><text style="dominant-baseline: middle; font-size: 10.2px;" transform="translate(115.3387451171875,145)" y="0" x="0" id="text-entity-User-818c511a-4a32-5484-ba70-875d765a9175-attr-6-comment" class="er entityLabel"/><rect height="22" width="54.095550537109375" y="156" x="0" class="er attributeBoxOdd"/><text style="dominant-baseline: middle; font-size: 10.2px;" transform="translate(5,167)" y="0" x="0" id="text-entity-User-818c511a-4a32-5484-ba70-875d765a9175-attr-7-type" class="er entityLabel">DateTime</text><rect height="22" width="56.243194580078125" y="156" x="54.095550537109375" class="er attributeBoxOdd"/><text style="dominant-baseline: middle; font-size: 10.2px;" transform="translate(59.095550537109375,167)" y="0" x="0" id="text-entity-User-818c511a-4a32-5484-ba70-875d765a9175-attr-7-name" class="er entityLabel">createdAt</text><rect height="22" width="24.015625" y="156" x="110.3387451171875" class="er attributeBoxOdd"/><text style="dominant-baseline: middle; font-size: 10.2px;" transform="translate(115.3387451171875,167)" y="0" x="0" id="text-entity-User-818c511a-4a32-5484-ba70-875d765a9175-attr-7-comment" class="er entityLabel"/></g><g transform="translate(188.68289184570312,298 )" id="entity-Cart-7cf1df46-9c3b-5024-83f2-2479d0652961"><rect height="134" width="154.918701171875" y="0" x="0" class="er entityBox"/><text style="dominant-baseline: middle; text-anchor: middle; font-size: 12px;" transform="translate(77.4593505859375,12)" y="0" x="0" id="text-entity-Cart-7cf1df46-9c3b-5024-83f2-2479d0652961" class="er entityLabel">Cart</text><rect height="22" width="59.09700012207031" y="24" x="0" class="er attributeBoxOdd"/><text style="dominant-baseline: middle; font-size: 10.2px;" transform="translate(5,35)" y="0" x="0" id="text-entity-Cart-7cf1df46-9c3b-5024-83f2-2479d0652961-attr-1-type" class="er entityLabel">String</text><rect height="22" width="71.80607604980469" y="24" x="59.09700012207031" class="er attributeBoxOdd"/><text style="dominant-baseline: middle; font-size: 10.2px;" transform="translate(64.09700012207031,35)" y="0" x="0" id="text-entity-Cart-7cf1df46-9c3b-5024-83f2-2479d0652961-attr-1-name" class="er entityLabel">id</text><rect height="22" width="24.015625" y="24" x="130.903076171875" class="er attributeBoxOdd"/><text style="dominant-baseline: middle; font-size: 10.2px;" transform="translate(135.903076171875,35)" y="0" x="0" id="text-entity-Cart-7cf1df46-9c3b-5024-83f2-2479d0652961-attr-1-comment" class="er entityLabel">🗝️</text><rect height="22" width="59.09700012207031" y="46" x="0" class="er attributeBoxEven"/><text style="dominant-baseline: middle; font-size: 10.2px;" transform="translate(5,57)" y="0" x="0" id="text-entity-Cart-7cf1df46-9c3b-5024-83f2-2479d0652961-attr-2-type" class="er entityLabel">String</text><rect height="22" width="71.80607604980469" y="46" x="59.09700012207031" class="er attributeBoxEven"/><text style="dominant-baseline: middle; font-size: 10.2px;" transform="translate(64.09700012207031,57)" y="0" x="0" id="text-entity-Cart-7cf1df46-9c3b-5024-83f2-2479d0652961-attr-2-name" class="er entityLabel">productName</text><rect height="22" width="24.015625" y="46" x="130.903076171875" class="er attributeBoxEven"/><text style="dominant-baseline: middle; font-size: 10.2px;" transform="translate(135.903076171875,57)" y="0" x="0" id="text-entity-Cart-7cf1df46-9c3b-5024-83f2-2479d0652961-attr-2-comment" class="er entityLabel"/><rect height="22" width="59.09700012207031" y="68" x="0" class="er attributeBoxOdd"/><text style="dominant-baseline: middle; font-size: 10.2px;" transform="translate(5,79)" y="0" x="0" id="text-entity-Cart-7cf1df46-9c3b-5024-83f2-2479d0652961-attr-3-type" class="er entityLabel">Float</text><rect height="22" width="71.80607604980469" y="68" x="59.09700012207031" class="er attributeBoxOdd"/><text style="dominant-baseline: middle; font-size: 10.2px;" transform="translate(64.09700012207031,79)" y="0" x="0" id="text-entity-Cart-7cf1df46-9c3b-5024-83f2-2479d0652961-attr-3-name" class="er entityLabel">productPrice</text><rect height="22" width="24.015625" y="68" x="130.903076171875" class="er attributeBoxOdd"/><text style="dominant-baseline: middle; font-size: 10.2px;" transform="translate(135.903076171875,79)" y="0" x="0" id="text-entity-Cart-7cf1df46-9c3b-5024-83f2-2479d0652961-attr-3-comment" class="er entityLabel"/><rect height="22" width="59.09700012207031" y="90" x="0" class="er attributeBoxEven"/><text style="dominant-baseline: middle; font-size: 10.2px;" transform="translate(5,101)" y="0" x="0" id="text-entity-Cart-7cf1df46-9c3b-5024-83f2-2479d0652961-attr-4-type" class="er entityLabel">Categories</text><rect height="22" width="71.80607604980469" y="90" x="59.09700012207031" class="er attributeBoxEven"/><text style="dominant-baseline: middle; font-size: 10.2px;" transform="translate(64.09700012207031,101)" y="0" x="0" id="text-entity-Cart-7cf1df46-9c3b-5024-83f2-2479d0652961-attr-4-name" class="er entityLabel">category</text><rect height="22" width="24.015625" y="90" x="130.903076171875" class="er attributeBoxEven"/><text style="dominant-baseline: middle; font-size: 10.2px;" transform="translate(135.903076171875,101)" y="0" x="0" id="text-entity-Cart-7cf1df46-9c3b-5024-83f2-2479d0652961-attr-4-comment" class="er entityLabel"/><rect height="22" width="59.09700012207031" y="112" x="0" class="er attributeBoxOdd"/><text style="dominant-baseline: middle; font-size: 10.2px;" transform="translate(5,123)" y="0" x="0" id="text-entity-Cart-7cf1df46-9c3b-5024-83f2-2479d0652961-attr-5-type" class="er entityLabel">DateTime</text><rect height="22" width="71.80607604980469" y="112" x="59.09700012207031" class="er attributeBoxOdd"/><text style="dominant-baseline: middle; font-size: 10.2px;" transform="translate(64.09700012207031,123)" y="0" x="0" id="text-entity-Cart-7cf1df46-9c3b-5024-83f2-2479d0652961-attr-5-name" class="er entityLabel">addedAt</text><rect height="22" width="24.015625" y="112" x="130.903076171875" class="er attributeBoxOdd"/><text style="dominant-baseline: middle; font-size: 10.2px;" transform="translate(135.903076171875,123)" y="0" x="0" id="text-entity-Cart-7cf1df46-9c3b-5024-83f2-2479d0652961-attr-5-comment" class="er entityLabel"/></g><g transform="translate(266.1422424316406,609 )" id="entity-BackupCart-d1b2cc88-f984-5840-9b9d-886c13aae6a8"><rect height="46" width="100" y="0" x="0" class="er entityBox"/><text style="dominant-baseline: middle; text-anchor: middle; font-size: 12px;" transform="translate(50,12)" y="0" x="0" id="text-entity-BackupCart-d1b2cc88-f984-5840-9b9d-886c13aae6a8" class="er entityLabel">BackupCart</text><rect height="22" width="43.95596822102865" y="24" x="0" class="er attributeBoxOdd"/><text style="dominant-baseline: middle; font-size: 10.2px;" transform="translate(5,35)" y="0" x="0" id="text-entity-BackupCart-d1b2cc88-f984-5840-9b9d-886c13aae6a8-attr-1-type" class="er entityLabel">String</text><rect height="22" width="25.468495686848957" y="24" x="43.95596822102865" class="er attributeBoxOdd"/><text style="dominant-baseline: middle; font-size: 10.2px;" transform="translate(48.95596822102865,35)" y="0" x="0" id="text-entity-BackupCart-d1b2cc88-f984-5840-9b9d-886c13aae6a8-attr-1-name" class="er entityLabel">id</text><rect height="22" width="30.575536092122395" y="24" x="69.42446390787761" class="er attributeBoxOdd"/><text style="dominant-baseline: middle; font-size: 10.2px;" transform="translate(74.42446390787761,35)" y="0" x="0" id="text-entity-BackupCart-d1b2cc88-f984-5840-9b9d-886c13aae6a8-attr-1-comment" class="er entityLabel">🗝️</text></g><rect height="14" width="21.91015625" y="242.48410034179688" x="168.43959045410156" class="er relationshipLabelBox"/><text style="text-anchor: middle; dominant-baseline: middle; font-size: 12px;" y="249.48410034179688" x="179.39466857910156" id="rel1" class="er relationshipLabel">cart</text><rect height="14" width="81.701171875" y="456.6751403808594" x="84.07734680175781" class="er relationshipLabelBox"/><text style="text-anchor: middle; dominant-baseline: middle; font-size: 12px;" y="463.6751403808594" x="124.92793273925781" id="rel2" class="er relationshipLabel">enum:category</text><rect height="14" width="23.958984375" y="241" x="254.16250610351562" class="er relationshipLabelBox"/><text style="text-anchor: middle; dominant-baseline: middle; font-size: 12px;" y="248" x="266.1419982910156" id="rel3" class="er relationshipLabel">user</text><rect height="14" width="61.373046875" y="514.9176025390625" x="249.79696655273438" class="er relationshipLabelBox"/><text style="text-anchor: middle; dominant-baseline: middle; font-size: 12px;" y="521.9176025390625" x="280.4834899902344" id="rel4" class="er relationshipLabel">backupCart</text><rect height="14" width="61.373046875" y="511.25360107421875" x="319.09765625" class="er relationshipLabelBox"/><text style="text-anchor: middle; dominant-baseline: middle; font-size: 12px;" y="518.2536010742188" x="349.7841796875" id="rel5" class="er relationshipLabel">backupCart</text></svg>